Coordinates

Units are S.I. units (second, meters, Newtons, ...)
If the header above contains a line with 'inDegrees', this indicates whether rotational values are in degrees (yes) or radians (no).

inDegrees=no
nColumns=22
nRows=17
DataType=double
version=3
OpenSimVersion=4.6-2026-03-31-d6972f9e6
endheader
time	/jointset/ground_pelvis/pelvis_tilt/value	/jointset/ground_pelvis/pelvis_list/value	/jointset/ground_pelvis/pelvis_rotation/value	/jointset/ground_pelvis/pelvis_tx/value	/jointset/ground_pelvis/pelvis_ty/value	/jointset/ground_pelvis/pelvis_tz/value	/jointset/hip_r/hip_flexion_r/value	/jointset/hip_r/hip_adduction_r/value	/jointset/hip_r/hip_rotation_r/value	/jointset/walker_knee_r/knee_angle_r/value	/jointset/patellofemoral_r/knee_angle_r_beta/value	/jointset/ankle_r/ankle_angle_r/value	/jointset/hip_l/hip_flexion_l/value	/jointset/hip_l/hip_adduction_l/value	/jointset/hip_l/hip_rotation_l/value	/jointset/walker_knee_l/knee_angle_l/value	/jointset/patellofemoral_l/knee_angle_l_beta/value	/jointset/ankle_l/ankle_angle_l/value	/jointset/back/lumbar_extension/value	/jointset/back/lumbar_bending/value	/jointset/back/lumbar_rotation/value
20.58	-0.4163453469719763	-0.1527118635824662	3.1350827325395	-3.311580060691875	0.7884151484674269	2.5012138858678	0.6200842196792153	-0.3921654671645086	0.0143644086053056	1.522683171225105	1.522683171672543	0.4647967801381028	0.5333904981460145	-0.05557594171567401	-0.08553601599349145	1.507209796954531	1.507209798228851	0.4469415337547573	-1.352778528404897	-0.06868253244947234	-0.0648876489186022
20.585	-0.4136388905605595	-0.1534325726847733	3.135323613493302	-3.310338325879714	0.7841785650649238	2.500963927648005	0.6336991864186498	-0.3917647956706927	0.01937723031432304	1.534944071368334	1.534944071779395	0.4675948375162331	0.5452111608802521	-0.05679619397990538	-0.08560750704219164	1.51915259001031	1.519152591482841	0.4484941409576292	-1.35531658174084	-0.06863474961450099	-0.064724443792837
20.59	-0.4110314471691279	-0.1541084892542378	3.135548717247394	-3.309118272425805	0.7799293690014663	2.500702451720481	0.6471721745544947	-0.3912111793577573	0.02443054366429871	1.547145442738153	1.547145443099113	0.470379269389005	0.5569255355325059	-0.05809071471555791	-0.08565932540383102	1.531076489836619	1.531076491494763	0.4500151763703115	-1.357851819519247	-0.06860355794277456	-0.06452091644459085
20.595	-0.4085247219161868	-0.1547429226028068	3.135759746757124	-3.307919465255918	0.7756682278586275	2.500430674407509	0.6605018970763082	-0.3905099579119735	0.02952478051416298	1.55929034311058	1.559290343409751	0.4731465183438854	0.5685325439929592	-0.05944898364171995	-0.08568180758553899	1.542980095750518	1.542980097577612	0.4515045064470301	-1.36038570570481	-0.06858627972726646	-0.06428324904790865
20.6	-0.4061201625834898	-0.1553401631499751	3.135958342873998	-3.306741442507407	0.7713958980133619	2.500149942021424	0.6736876688766137	-0.3896683124096171	0.0346600469575	1.571381554636284	1.571381554864344	0.4758930467722948	0.5800309715614405	-0.06085927092746471	-0.08566605040831231	1.554861326796527	1.55486132877231	0.4529619307817717	-1.362919808537152	-0.06858036864967453	-0.06401850477695807
20.605	-0.4038189004579709	-0.155905363005117	3.136146055695277	-3.305583722420885	0.7671132154147315	2.499861704083973	0.6867294506609358	-0.3886950645088338	0.03983613740633215	1.58342153925473	1.583421539404905	0.4786154075045123	0.5914195358134352	-0.06230895370546509	-0.08560414790948891	1.566717486873867	1.566717488975066	0.4543872047611327	-1.365455718760632	-0.06858345412062135	-0.06373447774018058
20.61	-0.4016216654651635	-0.1564443880672422	3.136324323049413	-3.304445810042377	0.7628210826192152	2.499567484319247	0.6996279132971185	-0.3876004282662593	0.04505254990247932	1.595412404839944	1.595412404908027	0.481310296681364	0.6026969999068043	-0.06378485860321258	-0.08548938598840761	1.578545352054715	1.578545354255766	0.4557800477736863	-1.367994939385264	-0.06859337953769326	-0.06343951502727681
20.615	-0.3995287200219907	-0.1569636453050696	3.136494453913787	-3.30332720291806	0.758520457987282	2.499268850135372	0.7123844608038038	-0.3863957255161433	0.05030849282391076	1.607355868530049	1.607355868514313	0.4839746021008962	0.6138622719383562	-0.06527361680616908	-0.08531638757867654	1.590341261393598	1.590341263667464	0.4571401540585013	-1.370538793264878	-0.06860822862802356	-0.06314231582368066
20.62	-0.3975398500795789	-0.1574698896660616	3.136657615344704	-3.302227395125916	0.7542123521517895	2.498967381552672	0.7250011587632424	-0.3850930778669862	0.05560287256070705	1.619253205629485	1.619253205530525	0.4866054597985871	0.6249144393594278	-0.06676201740378752	-0.08508120182224946	1.602101194340187	1.602101196659234	0.4584672219541807	-1.373088388548009	-0.06862633430861614	-0.06285171382138267
20.625	-0.3956544138041075	-0.1579700158811611	3.136814823123586	-3.301145879682319	0.7498978318972178	2.498664640589109	0.7374805694300924	-0.3837050855221528	0.06093426018976144	1.631105184767266	1.6311051845878	0.4892003188756097	0.6358527369666125	-0.06823734850763456	-0.08478133517996936	1.613820832369132	1.613820834706019	0.4597610012695871	-1.37564464247453	-0.06864626990943731	-0.06257644926746127
20.63	-0.3938714147517079	-0.1584708418623734	3.136966937266667	-3.300082149978372	0.745578027186	2.49836214200785	0.7498255437651519	-0.3822445002480686	0.06630084460534243	1.642912001369366	1.642912001114	0.4917570021837698	0.6466764906631071	-0.06968771920536723	-0.08441572797543738	1.625495615176012	1.625495617504577	0.4610213438684022	-1.378208329043756	-0.06866682822370217	-0.06232493723371198
20.635	-0.3921895784794462	-0.1589788916490853	3.137114662773631	-3.299035700684945	0.7412541386269046	2.498061326309872	0.7620390047021285	-0.3807239025269082	0.07170037789124169	1.654673218245859	1.654673217920842	0.4942737550349311	0.6573850630272234	-0.07110235356551486	-0.08398468127420738	1.637120796978654	1.637120799274762	0.4622482482848558	-1.380780128829226	-0.06868699268287758	-0.06210503963671557
20.64	-0.3906074491989492	-0.1595001860525439	3.137258554403354	-3.298006027892387	0.736927447525017	2.497763535867723	0.774123703041129	-0.3791553978336295	0.07713011017783887	1.66638771013627	1.666387709749276	0.4967492888991377	0.667977777300924	-0.07247184417404998	-0.08348973781511565	1.648691494348581	1.64869149659089	0.463441906353519	-1.383360698600614	-0.06870589960402751	-0.06192384930369154
20.645	-0.389123518791751	-0.160040048154596	3.137399024114318	-3.296992628377885	0.7325993299123856	2.497469994781461	0.7860819333649658	-0.3775503434979132	0.08258671391018813	1.678053609865518	1.678053609425472	0.4991828256301767	0.6784538022487934	-0.07378835638547313	-0.0829335224726986	1.660202719257469	1.660202721428073	0.4646027570077698	-1.38595077398453	-0.06872279152729006	-0.06178749324252859
20.65	-0.3877363443242527	-0.1606029297314805	3.137536351193383	-3.295994998958439	0.7282712684842361	2.49718179236574	0.7979152769184565	-0.3759191049176727	0.08806621504549819	1.689668270673944	1.689668270190912	0.5015741251547683	0.6888120537875324	-0.07504578541319615	-0.08231955319643623	1.671649411932893	1.671649414017804	0.4657315246910297	-1.38855126018093	-0.06873697115050598	-0.06170095977532991
20.655	-0.3864445836912563	-0.1611922644948786	3.137670695611693	-3.295012637362736	0.7239448530399564	2.496899869792891	0.8096244757161699	-0.3742708336325197	0.09356395800705303	1.701228267005365	1.70122826649051	0.5039234682688757	0.6990512032651148	-0.07623987365843859	-0.0816520372862853	1.683026496770351	1.683026498759787	0.4668292069953689	-1.391163238626003	-0.06874777012124103	-0.06166795328964728
20.66	-0.3852469337719545	-0.16181035402439	3.137802113980531	-3.294045045026218	0.7196217674549994	2.496625009830114	0.8212094635899543	-0.3726132703697488	0.09907461465373273	1.712729438979517	1.712729438445118	0.506231588670303	0.7091698103275087	-0.07736828803973855	-0.08093566531353621	1.694328964323923	1.694328966212374	0.4678970043931485	-1.393787874229779	-0.06875453759250033	-0.06169078185388696
